<?xml version="1.0" encoding="utf-8"?>
<!-- Generator: Adobe Illustrator 19.2.0, SVG Export Plug-In . SVG Version: 6.00 Build 0)  -->
<svg version="1.1" id="Calque_1" xmlns="http://www.w3.org/2000/svg" xmlns:xlink="http://www.w3.org/1999/xlink" x="0px" y="0px"
	 viewBox="0 0 548 192" style="enable-background:new 0 0 548 192;" xml:space="preserve">
<style type="text/css">
	.st0{clip-path:url(#SVGID_2_);}
</style>
<g>
	<defs>
		<rect id="SVGID_1_" x="14" y="14.1" width="520.2" height="161.1"/>
	</defs>
	<clipPath id="SVGID_2_">
		<use xlink:href="#SVGID_1_"  style="overflow:visible;"/>
	</clipPath>
	<path class="st0" d="M502.6,172.1h31.6v-158h-31.6V172.1z M329.3,91.3c0.5-5.4,2-8.8,5.4-11.7c3.8-3.2,9.3-4.7,16-4.7
		c12.9,0,19.6,5.2,19.6,13.8c0,6.3-2.5,9.3-10.8,10.4l-5.2,0.7c-24.8,3.6-59.4,8.4-59.4,39c0,22.6,19.4,36.6,44.2,36.6
		c20.3,0,29.3-7.2,34.8-12.4h0.2l0.7,9.3h28.7v-0.7c-2-3.6-2.7-7.7-2.7-15.3v-54.4c0-11.1-0.9-18.1-2.7-23.7
		c-6.1-19.2-26.4-25.7-46.5-25.7c-28.2,0-49.4,12-51,38.6L329.3,91.3z M345.8,152.7c-12,0-19.4-5.2-19.4-14.9c0-3.6,1.4-6.8,3.6-9
		c3.2-3.2,9.3-5.2,17.8-7.4l7-1.8c8.1-2,14-3.6,16.7-4.7V129c0,5.6-0.5,7.7-1.1,9.7C366.7,148.9,355.9,152.7,345.8,152.7
		 M249.8,94.7c-3.2-25.5-24.1-42.4-53.3-42.4c-36.8,0-59.6,25.5-59.6,61.4c0,36.8,21.2,61.4,59.4,61.4c30.2,0,49.9-17.2,54.4-42.4
		h-30.7c-2.7,9.3-8.6,18.1-23,18.1c-16.5,0-27.5-11.3-27.5-36.8c0-24.4,10.6-37.5,26.9-37.5c13.5,0,20.5,9,22.3,18.3H249.8z
		 M72.5,75.3c15.8,0,25.5,11.1,26,26H46.5C47.9,86.4,57.3,75.3,72.5,75.3 M96.8,138.3c-3.4,6.3-10.2,12.6-22.8,12.6
		c-14.4,0-26.4-8.6-28-28.9h84.2v-2.9c0-38.1-19-66.8-57.8-66.8C36.8,52.3,14,78.7,14,113.7c0,35,21.7,61.4,59.6,61.4
		c28,0,47.2-14.7,55.3-36.8H96.8z M108.6,14.1H70.2L54.8,43.3h28.2L108.6,14.1z"/>
</g>
</svg>
